# Blender v2.79 (sub 0) OBJ File: 'penta_piston_base.blend'
# www.blender.org
mtllib penta_piston_base.mtl
o Cube.002_Cube
v 0.750000 0.750000 0.750000
v 0.250000 0.750000 0.750000
v 0.000000 1.000000 1.000000
v 1.000000 1.000000 1.000000
v 0.250000 0.250000 0.750000
v 0.000000 0.000000 1.000000
v 0.750000 0.250000 0.750000
v 1.000000 -0.000000 1.000000
v 0.750000 0.250000 0.750000
v 0.750000 0.750000 0.750000
v 0.250000 0.250000 0.750000
v 0.250000 0.250000 0.250000
v 0.750000 0.250000 0.250000
v 0.250000 0.750000 0.750000
v 0.750000 0.750000 0.250000
v 0.250000 0.750000 0.250000
vt 0.125000 0.125000
vt 0.125000 0.375000
vt 0.000000 0.500000
vt 0.000000 0.000000
vt 0.375000 0.375000
vt 0.500000 0.500000
vt 0.375000 0.125000
vt 0.500000 0.000000
vt 0.000000 0.500000
vt 0.000000 0.000000
vt 0.500000 0.000000
vt 0.500000 0.500000
vt 0.625000 0.125000
vt 0.875000 0.125000
vt 0.875000 0.375000
vt 0.625000 0.375000
vt 0.625000 0.125000
vt 0.875000 0.125000
vt 0.875000 0.375000
vt 0.625000 0.375000
vt 0.625000 0.125000
vt 0.875000 0.125000
vt 0.875000 0.375000
vt 0.625000 0.375000
vt 0.625000 0.125000
vt 0.875000 0.125000
vt 0.875000 0.375000
vt 0.625000 0.375000
vt 0.625000 0.125000
vt 0.875000 0.125000
vn -0.0000 0.7071 -0.7071
vn -0.7071 0.0000 -0.7071
vn -0.0000 -0.7071 -0.7071
vn 0.7071 -0.0000 -0.7071
vn 0.0000 0.0000 1.0000
vn -0.0000 -1.0000 0.0000
vn 1.0000 -0.0000 0.0000
vn 0.0000 1.0000 -0.0000
vn -1.0000 0.0000 -0.0000
vn 0.0000 0.0000 -1.0000
usemtl None
s off
f 1/1/1 2/2/1 3/3/1 4/4/1
f 2/2/2 5/5/2 6/6/2 3/3/2
f 5/5/3 7/7/3 8/8/3 6/6/3
f 7/7/4 1/1/4 4/4/4 8/8/4
f 4/9/5 3/10/5 6/11/5 8/12/5
f 9/13/6 11/14/6 12/15/6 13/16/6
f 10/17/7 9/18/7 13/19/7 15/20/7
f 14/21/8 10/22/8 15/23/8 16/24/8
f 11/25/9 14/26/9 16/27/9 12/28/9
f 15/20/10 13/29/10 12/30/10 16/27/10
