# Blender v2.79 (sub 0) OBJ File: 'penta_piston_head.blend'
# www.blender.org
mtllib penta_piston_head_short_sticky.mtl
o Cube.002_Cube
v 0.250000 0.250000 0.250000
v 0.250000 0.750000 0.250000
v 0.000000 1.000000 0.000000
v 0.000000 0.000000 0.000000
v 0.750000 0.750000 0.250000
v 1.000000 1.000000 -0.000000
v 0.750000 0.250000 0.250000
v 1.000000 0.000000 0.000000
v 0.625000 0.375000 0.250000
v 0.375000 0.375000 0.250000
v 0.625000 0.625000 0.250000
v 0.625000 0.625000 1.000000
v 0.625000 0.375000 1.000000
v 0.375000 0.625000 0.250000
v 0.375000 0.375000 1.000000
v 0.375000 0.625000 1.000000
vt 0.200000 0.250000
vt 0.200000 0.750000
vt 0.000000 1.000000
vt -0.000000 0.000000
vt 0.600000 0.750000
vt 0.800000 1.000000
vt 0.600000 0.250000
vt 0.800000 0.000000
vt 0.800000 0.000000
vt 0.000000 1.000000
vt 0.500000 0.375000
vt 0.300000 0.375000
vt 0.800000 -0.000000
vt 1.000000 0.000000
vt 1.000000 0.750000
vt 0.800000 0.750000
vt 0.500000 0.625000
vt 0.300000 0.625000
vt 0.800000 -0.000000
vt 1.000000 -0.000000
vt 1.000000 0.750000
vt 0.800000 0.750000
vt 0.800000 -0.000000
vt 1.000000 -0.000000
vt 1.000000 0.750000
vt 0.800000 0.750000
vt 0.800000 -0.000000
vt 1.000000 -0.000000
vt 1.000000 0.750000
vt 0.800000 0.750000
vt 0.300000 0.375000
vt 0.500000 0.375000
vt 0.500000 0.625000
vt 0.300000 0.625000
vn -0.7071 0.0000 0.7071
vn 0.0000 0.7071 0.7071
vn 0.7071 0.0000 0.7071
vn 0.0000 -0.7071 0.7071
vn -0.0000 -0.0000 -1.0000
vn 0.0000 0.0000 1.0000
vn 1.0000 0.0000 -0.0000
vn 0.0000 -1.0000 0.0000
vn -1.0000 -0.0000 0.0000
vn -0.0000 1.0000 -0.0000
usemtl None
s off
f 1/1/1 2/2/1 3/3/1 4/4/1
f 2/2/2 5/5/2 6/6/2 3/3/2
f 5/5/3 7/7/3 8/8/3 6/6/3
f 7/7/4 1/1/4 4/4/4 8/8/4
f 4/4/5 3/9/5 6/6/5 8/10/5
f 1/1/6 7/7/6 9/11/6 10/12/6
f 9/13/7 11/14/7 12/15/7 13/16/7
f 7/7/6 5/5/6 11/17/6 9/11/6
f 2/2/6 1/1/6 10/12/6 14/18/6
f 5/5/6 2/2/6 14/18/6 11/17/6
f 10/19/8 9/20/8 13/21/8 15/22/8
f 14/23/9 10/24/9 15/25/9 16/26/9
f 11/27/10 14/28/10 16/29/10 12/30/10
f 15/31/6 13/32/6 12/33/6 16/34/6
